<svg xmlns="http://www.w3.org/2000/svg" viewBox="0 0 18 18" width="18" height="18">
  <rect x="2" y="4" width="10" height="10" rx="2" fill="none" stroke="black" stroke-width="1.5"/>
  <rect x="4.5" y="6.5" width="5" height="5" rx="1" fill="black"/>
  <line x1="4" y1="2" x2="4" y2="4" stroke="black" stroke-width="1.5" stroke-linecap="round"/>
  <line x1="7" y1="2" x2="7" y2="4" stroke="black" stroke-width="1.5" stroke-linecap="round"/>
  <line x1="10" y1="2" x2="10" y2="4" stroke="black" stroke-width="1.5" stroke-linecap="round"/>
  <line x1="4" y1="14" x2="4" y2="16" stroke="black" stroke-width="1.5" stroke-linecap="round"/>
  <line x1="7" y1="14" x2="7" y2="16" stroke="black" stroke-width="1.5" stroke-linecap="round"/>
  <line x1="10" y1="14" x2="10" y2="16" stroke="black" stroke-width="1.5" stroke-linecap="round"/>
  <line x1="0" y1="6" x2="2" y2="6" stroke="black" stroke-width="1.5" stroke-linecap="round"/>
  <line x1="0" y1="9" x2="2" y2="9" stroke="black" stroke-width="1.5" stroke-linecap="round"/>
  <line x1="0" y1="12" x2="2" y2="12" stroke="black" stroke-width="1.5" stroke-linecap="round"/>
  <line x1="12" y1="6" x2="14" y2="6" stroke="black" stroke-width="1.5" stroke-linecap="round"/>
  <line x1="12" y1="9" x2="14" y2="9" stroke="black" stroke-width="1.5" stroke-linecap="round"/>
  <line x1="12" y1="12" x2="14" y2="12" stroke="black" stroke-width="1.5" stroke-linecap="round"/>
  <circle cx="15.5" cy="4.5" r="2.5" fill="black"/>
</svg>
