<svg xmlns="http://www.w3.org/2000/svg" viewBox="0 0 18 18" width="18" height="18">
  <rect x="4" y="4" width="10" height="10" rx="2" fill="none" stroke="black" stroke-width="1.5"/>
  <rect x="6.5" y="6.5" width="5" height="5" rx="1" fill="black"/>
  <line x1="6" y1="2" x2="6" y2="4" stroke="black" stroke-width="1.5" stroke-linecap="round"/>
  <line x1="9" y1="2" x2="9" y2="4" stroke="black" stroke-width="1.5" stroke-linecap="round"/>
  <line x1="12" y1="2" x2="12" y2="4" stroke="black" stroke-width="1.5" stroke-linecap="round"/>
  <line x1="6" y1="14" x2="6" y2="16" stroke="black" stroke-width="1.5" stroke-linecap="round"/>
  <line x1="9" y1="14" x2="9" y2="16" stroke="black" stroke-width="1.5" stroke-linecap="round"/>
  <line x1="12" y1="14" x2="12" y2="16" stroke="black" stroke-width="1.5" stroke-linecap="round"/>
  <line x1="2" y1="6" x2="4" y2="6" stroke="black" stroke-width="1.5" stroke-linecap="round"/>
  <line x1="2" y1="9" x2="4" y2="9" stroke="black" stroke-width="1.5" stroke-linecap="round"/>
  <line x1="2" y1="12" x2="4" y2="12" stroke="black" stroke-width="1.5" stroke-linecap="round"/>
  <line x1="14" y1="6" x2="16" y2="6" stroke="black" stroke-width="1.5" stroke-linecap="round"/>
  <line x1="14" y1="9" x2="16" y2="9" stroke="black" stroke-width="1.5" stroke-linecap="round"/>
  <line x1="14" y1="12" x2="16" y2="12" stroke="black" stroke-width="1.5" stroke-linecap="round"/>
</svg>
